<svg width="46" height="50" viewBox="0 0 46 50" fill="none" xmlns="http://www.w3.org/2000/svg">
<path d="M22.9993 0.785612C19.8565 0.670964 17.4227 2.84245 14.7872 4.2069C11.2028 6.33171 7.51164 8.29186 3.99856 10.5268C1.70071 12.3945 0.644945 15.3999 0.886253 18.3021C0.899632 23.4478 0.859593 28.5947 0.906468 33.7396C1.20403 36.8548 3.36418 39.4987 6.14387 40.8019C10.6062 43.363 15.0423 45.9716 19.5209 48.5028C22.368 49.801 25.7384 49.255 28.257 47.4986C32.7062 44.9142 37.1829 42.3756 41.6147 39.7624C44.164 37.9473 45.3741 34.7548 45.1125 31.696C45.0991 26.5502 45.1393 21.4034 45.0923 16.2585C44.7945 13.1434 42.6347 10.499 39.8547 9.19635C35.3923 6.63581 30.9554 4.02887 26.477 1.49743C25.393 0.993913 24.1889 0.788932 22.9994 0.785515M20.1972 13.7435H25.8027V36.2552H20.1972V13.7435ZM27.251 18.6433H32.8537V36.2552H27.251V18.6433ZM13.1444 27.8308H18.7489V36.2552H13.1444V27.8308Z" fill="#482FDB"/>
</svg>
